<svg width="25" height="25" viewBox="0 0 25 25" fill="none" xmlns="http://www.w3.org/2000/svg">
<g clip-path="url(#clip0_5164_192136)">
<path d="M16.3686 1.92104C15.1654 3.14331 14.7418 4.70517 14.7499 6.60919L14.7685 11.0212L17.3719 10.9343L17.3294 1.12958C16.9834 1.36048 16.6615 1.62564 16.3686 1.92104Z" fill="black"/>
<path d="M11.937 2.25057L11.9363 2.25131C11.8996 2.21496 11.8529 2.19035 11.8022 2.18064C11.7515 2.17092 11.699 2.17654 11.6515 2.19677C11.604 2.217 11.5636 2.25092 11.5354 2.29422C11.5073 2.33751 11.4926 2.38821 11.4934 2.43984L11.5178 5.04424L11.5315 6.60608C11.5319 6.64024 11.5255 6.67414 11.5127 6.70584C11.4999 6.73753 11.4811 6.7664 11.4571 6.7908C11.4332 6.81519 11.4047 6.83464 11.3733 6.84802C11.3418 6.8614 11.3081 6.86846 11.2739 6.8688C11.2397 6.86913 11.2058 6.86273 11.1741 6.84997C11.1424 6.8372 11.1136 6.81831 11.0892 6.79439C11.0648 6.77047 11.0453 6.74197 11.032 6.71053C11.0186 6.67909 11.0115 6.64533 11.0112 6.61116L10.9967 5.04933L10.9727 2.44456C10.9724 2.41037 10.9653 2.37657 10.952 2.3451C10.9386 2.31363 10.9192 2.2851 10.8948 2.26115C10.8704 2.23719 10.8415 2.21827 10.8098 2.20547C10.7781 2.19267 10.7442 2.18624 10.71 2.18655C10.6758 2.18686 10.642 2.19391 10.6105 2.20728C10.579 2.22065 10.5505 2.24009 10.5265 2.26448C10.5026 2.28888 10.4837 2.31775 10.4709 2.34946C10.4581 2.38117 10.4516 2.41509 10.452 2.44928L10.4763 5.05368L10.4901 6.61551C10.4907 6.68452 10.464 6.75096 10.4157 6.80023C10.3673 6.8495 10.3014 6.87756 10.2324 6.87823C10.1634 6.87891 10.097 6.85214 10.0477 6.80383C9.99844 6.75551 9.97038 6.6896 9.96971 6.62059L9.95519 5.05877L9.93122 2.454C9.93091 2.41981 9.92387 2.38601 9.9105 2.35454C9.89713 2.32307 9.87769 2.29454 9.85329 2.27058C9.8289 2.24662 9.80002 2.2277 9.76831 2.21491C9.7366 2.20211 9.70269 2.19568 9.66849 2.19599C9.6343 2.1963 9.60051 2.20334 9.56904 2.21671C9.53757 2.23008 9.50904 2.24952 9.48508 2.27392C9.46112 2.29831 9.4422 2.32719 9.4294 2.3589C9.4166 2.39061 9.41018 2.42452 9.41049 2.45872L9.43408 5.06238L9.43631 5.06457L9.45008 6.62567C9.45037 6.65984 9.44392 6.69373 9.43111 6.7254C9.4183 6.75708 9.39937 6.78592 9.37541 6.81028C9.35145 6.83465 9.32293 6.85405 9.29147 6.86739C9.26002 6.88073 9.22624 6.88774 9.19207 6.88803C9.1579 6.88831 9.12401 6.88187 9.09234 6.86905C9.06066 6.85624 9.03182 6.83732 9.00746 6.81336C8.98309 6.7894 8.96369 6.76088 8.95035 6.72942C8.93701 6.69796 8.93 6.66418 8.92971 6.63002L8.91445 5.06746L8.89322 2.72379L8.89123 2.46342C8.89092 2.42923 8.88388 2.39543 8.8705 2.36396C8.85713 2.33249 8.8377 2.30396 8.8133 2.28C8.7889 2.25605 8.76003 2.23713 8.72832 2.22433C8.69661 2.21153 8.66269 2.2051 8.6285 2.20541C8.59431 2.20572 8.56051 2.21276 8.52904 2.22613C8.49757 2.2395 8.46904 2.25894 8.44508 2.28334C8.42113 2.30774 8.40221 2.33661 8.38941 2.36832C8.37661 2.40003 8.37018 2.43395 8.37049 2.46814L8.37248 2.72851L8.39408 5.0718L8.40713 6.63438L8.41496 7.41658C8.41652 7.57035 8.46391 7.72015 8.55107 7.84684C8.63823 7.97353 8.76119 8.07133 8.90424 8.12776L9.70929 8.44677L9.41831 23.0374C9.41696 23.1045 9.42911 23.1711 9.45401 23.2334C9.47892 23.2957 9.51608 23.3524 9.5633 23.4C9.61051 23.4477 9.66682 23.4854 9.72887 23.5109C9.79093 23.5364 9.85747 23.5491 9.92456 23.5484L10.8114 23.5411C10.8825 23.5405 10.9528 23.5256 11.0181 23.4974C11.0834 23.4691 11.1424 23.428 11.1915 23.3765C11.2406 23.325 11.2789 23.2642 11.3041 23.1977C11.3293 23.1311 11.3409 23.0602 11.3382 22.9891L10.7865 8.43591L11.5845 8.10347C11.7267 8.04437 11.8481 7.94412 11.9329 7.81559C12.0178 7.68705 12.0623 7.53609 12.0608 7.38208L12.0396 5.03841L12.0152 2.43401C12.015 2.39978 12.0079 2.36595 11.9945 2.33447C11.981 2.30298 11.9615 2.27447 11.937 2.25057Z" fill="black"/>
<path d="M15.1035 10.9375H17.1868V22.3958C17.1868 22.9711 16.7205 23.4375 16.1452 23.4375C15.5699 23.4375 15.1035 22.9711 15.1035 22.3958V10.9375Z" fill="black"/>
</g>
<defs>
<clipPath id="clip0_5164_192136">
<rect width="25" height="25" fill="white"/>
</clipPath>
</defs>
</svg>
