<svg width="23" height="21" viewBox="0 0 23 21" fill="none" xmlns="http://www.w3.org/2000/svg">
<path d="M8.73606 20.9998C8.67895 20.9998 8.62183 20.9829 8.57413 20.9479C8.47559 20.8755 8.44609 20.749 8.5032 20.6457L10.6711 16.9165H7.4839C7.37469 16.9165 7.20899 16.8984 7.13116 16.7432C7.0596 16.6015 7.09538 16.4668 7.16066 16.3332L9.41581 11.0832C9.46477 11.0442 13.7479 11.3125 13.8094 11.3125C13.8659 11.3125 13.9236 11.3294 13.9707 11.3644C14.0692 11.4367 14.0987 11.5633 14.041 11.6671L11.6452 15.1671H14.8036C14.9128 15.1671 15.0101 15.2301 15.049 15.3252C15.0866 15.4203 15.0571 15.5276 14.9743 15.5941L8.90741 20.9409C8.85783 20.9799 8.79695 20.9998 8.73606 20.9998Z" fill="#F4900C"/>
<path d="M17.5743 2.3333C17.0564 2.3333 16.5575 2.40622 16.0873 2.54155C15.5306 1.06282 14.0205 0 12.2392 0C10.3286 0 8.72938 1.22265 8.28563 2.87055C7.81238 2.53805 7.22992 2.3333 6.59035 2.3333C5.03063 2.3333 3.76591 3.50871 3.76591 4.95827C3.76591 5.3106 3.84311 5.64543 3.97869 5.95226C3.70942 5.88285 3.43137 5.83326 3.13826 5.83326C1.40469 5.83326 0 7.13875 0 8.74989C0 10.361 1.40469 11.6665 3.13826 11.6665H17.5743C20.3472 11.6665 22.5955 9.57763 22.5955 6.99991C22.5955 4.42278 20.3472 2.3333 17.5743 2.3333Z" fill="white"/>
<path d="M6.90363 14.5605L6.8327 12.5649L5.03134 13.5613C4.6309 13.7625 4.36477 14.1586 4.38109 14.6107C4.40432 15.2535 4.9874 15.7627 5.6841 15.7499C6.38016 15.7365 6.92685 15.2033 6.90363 14.5605ZM5.64832 19.2271L5.5774 17.2316L3.77604 18.2279C3.37559 18.4291 3.10947 18.8252 3.12579 19.2773C3.14901 19.9201 3.7321 20.4293 4.42879 20.4165C5.12549 20.4031 5.67155 19.8699 5.64832 19.2271ZM2.52324 15.9955L2.45232 13.9999L0.650958 14.9962C0.250516 15.1975 -0.0156082 15.5936 0.000710767 16.0456C0.0239339 16.6891 0.607022 17.1983 1.30372 17.1849C2.00041 17.1715 2.54647 16.6383 2.52324 15.9955ZM18.2145 14.5605L18.1436 12.5649L16.3429 13.5613C15.9418 13.7625 15.6763 14.1586 15.6926 14.6107C15.7159 15.2541 16.2989 15.7633 16.9956 15.7499C17.6917 15.7365 18.2378 15.2033 18.2145 14.5605ZM16.9592 19.8104L16.8883 17.8149L15.0876 18.8112C14.6865 19.0124 14.421 19.4085 14.4373 19.8606C14.4606 20.5034 15.0436 21.0133 15.7403 20.9998C16.4364 20.9864 16.9825 20.4533 16.9592 19.8104ZM20.7251 17.4771L20.6542 15.4816L18.8535 16.4779C18.4524 16.6791 18.1869 17.0752 18.2032 17.5273C18.2265 18.1707 18.8096 18.6799 19.5062 18.6665C20.2023 18.6531 20.7484 18.12 20.7251 17.4771Z" fill="#5DADEC"/>
</svg>
