<svg width="28" height="28" viewBox="0 0 28 28" fill="none" xmlns="http://www.w3.org/2000/svg">
<g clip-path="url(#clip0_5003_194798)">
<path fill-rule="evenodd" clip-rule="evenodd" d="M28 13.987C28 21.728 21.728 28 13.987 28C6.272 28 0 21.728 0 13.987C0 6.272 6.272 0 13.987 0C21.728 0 28 6.272 28 13.987Z" fill="white"/>
<path d="M12.3125 21.625V22.8125H14.6875V21.625V18.0625H12.3125V21.625Z" fill="#8F64EB"/>
<path d="M21.8118 11.3885L20.6243 6.63851C20.5918 6.50677 20.5151 6.39014 20.4071 6.30804C20.299 6.22594 20.1662 6.18331 20.0305 6.18726H6.96802C6.83239 6.18331 6.69949 6.22594 6.59146 6.30804C6.48343 6.39014 6.40678 6.50677 6.37427 6.63851L5.18677 11.3885C5.17212 11.467 5.17212 11.5475 5.18677 11.626C5.20118 12.0708 5.31539 12.5066 5.52093 12.9012C5.72648 13.2959 6.01812 13.6393 6.37427 13.906V22.2185C6.37427 22.376 6.43682 22.527 6.54817 22.6384C6.65952 22.7497 6.81055 22.8123 6.96802 22.8123H11.1243V17.4685C11.1243 17.311 11.1868 17.16 11.2982 17.0487C11.4095 16.9373 11.5605 16.8748 11.718 16.8748H15.2805C15.438 16.8748 15.589 16.9373 15.7004 17.0487C15.8117 17.16 15.8743 17.311 15.8743 17.4685V22.8123H20.0305C20.188 22.8123 20.339 22.7497 20.4504 22.6384C20.5617 22.527 20.6243 22.376 20.6243 22.2185V13.906C20.9804 13.6393 21.2721 13.2959 21.4776 12.9012C21.6832 12.5066 21.7974 12.0708 21.8118 11.626C21.8264 11.5475 21.8264 11.467 21.8118 11.3885ZM19.7158 13.0926C19.4491 13.2408 19.1482 13.3166 18.843 13.3123C18.4745 13.3125 18.115 13.1983 17.8141 12.9857C17.5131 12.773 17.2855 12.4722 17.1627 12.1248H20.5233C20.3767 12.5379 20.0829 12.8825 19.698 13.0926H19.7158ZM13.4993 13.3123C13.1308 13.3125 12.7713 13.1983 12.4703 12.9857C12.1694 12.773 11.9418 12.4722 11.819 12.1248H15.1796C15.0567 12.4722 14.8292 12.773 14.5282 12.9857C14.2273 13.1983 13.8678 13.3125 13.4993 13.3123ZM6.47521 12.1248H9.83583C9.71299 12.4722 9.48542 12.773 9.18448 12.9857C8.88353 13.1983 8.52403 13.3125 8.15552 13.3123C7.8564 13.3135 7.56199 13.2378 7.30052 13.0926C6.91568 12.8825 6.62183 12.5379 6.47521 12.1248ZM7.43114 7.37476H19.5674L20.458 10.9373H6.54052L7.43114 7.37476Z" fill="#8F64EB"/>
</g>
<defs>
<clipPath id="clip0_5003_194798">
<rect width="28" height="28" fill="white"/>
</clipPath>
</defs>
</svg>
