<svg width="19" height="19" viewBox="0 0 19 19" fill="none" xmlns="http://www.w3.org/2000/svg">
<path d="M18.9754 9.43393C19.2067 12.032 17.8119 14.3132 16.2756 16.2551C14.9881 17.6824 13.145 18.2843 11.3014 18.6497C9.51424 19.2583 7.5203 19.0627 5.87172 18.1496C5.29389 17.9093 4.61545 17.8372 4.10188 17.4924C2.49298 16.4608 1.57369 14.739 0.872351 13.0055C-0.03688 11.3759 -0.100029 9.38251 0.0821527 7.56126C0.204538 6.94262 0.62255 6.4257 0.857821 5.85624C1.26521 4.66759 1.92856 3.64156 2.85232 2.7966C3.29157 2.35679 3.62184 1.77783 4.13932 1.43079C4.6529 1.08599 5.31456 1.00719 5.8924 0.766893C6.46018 0.531063 6.9922 0.163347 7.60916 0.0409612C8.20823 -0.0780715 8.83916 0.100198 9.47288 0.100198C10.7219 0.0689031 11.9776 0.182906 13.1473 0.541122C13.7251 0.781423 14.1425 1.31232 14.6561 1.65712C15.1736 2.00472 15.7732 2.23832 16.2119 2.67812C17.1077 3.55326 17.8795 4.58432 18.4137 5.72156C18.777 6.90015 18.9486 8.1743 18.9754 9.43393Z" fill="#DA9F83"/>
<path d="M12.0853 8.91822C12.743 8.70307 13.4511 9.06408 13.6651 9.72295C13.8797 10.3818 13.5198 11.0904 12.8598 11.305C12.1998 11.5196 10.6966 11.4174 10.482 10.7585C10.2679 10.0985 11.4247 9.1317 12.0853 8.91822ZM16.8745 8.54268C16.6622 8.79528 16.285 8.82881 16.0324 8.61589C15.7798 8.40297 15.7468 8.02632 15.9592 7.77316C16.1721 7.52112 16.8052 7.18247 17.0578 7.39483C17.311 7.60774 17.0874 8.28953 16.8745 8.54268ZM4.58007 4.63081C4.36771 4.8834 3.9905 4.91694 3.7379 4.70402C3.48531 4.4911 3.45234 4.115 3.66469 3.86129C3.87761 3.60925 4.51078 3.2706 4.76337 3.48295C5.01653 3.69587 4.79299 4.37766 4.58007 4.63081ZM11.3381 3.57237C10.9201 3.30524 10.7966 2.74976 11.0643 2.33175C11.332 1.91318 11.8875 1.79079 12.306 2.05791C12.7246 2.3256 13.3522 3.20353 13.085 3.62155C12.8168 4.04068 11.7567 3.84061 11.3381 3.57237ZM6.90875 7.04667C6.62095 6.45095 6.87299 5.73284 7.47039 5.44616C8.06779 5.15947 8.78422 5.41207 9.0709 6.00947C9.35759 6.60742 9.45203 8.04532 8.85463 8.33088C8.25612 8.61813 7.19432 7.64519 6.90875 7.04667ZM7.48101 14.9257C7.81743 14.4373 8.48692 14.3133 8.97422 14.6508C9.46265 14.9889 9.58559 15.6573 9.24805 16.1457C8.91052 16.6341 7.83531 17.3455 7.348 17.0085C6.85902 16.671 7.14347 15.4136 7.48101 14.9257ZM13.0767 14.6989C12.6927 14.4552 12.5799 13.9455 12.8257 13.5622C13.0705 13.1794 13.5796 13.067 13.963 13.3124C14.3463 13.5571 14.9214 14.3619 14.6761 14.7441C14.4313 15.1286 13.46 14.9447 13.0767 14.6989ZM2.52802 9.74139C2.95385 9.2647 3.68537 9.22391 4.1615 9.6503C4.63763 10.0773 4.67787 10.8077 4.25147 11.2832C3.82508 11.7605 2.57943 12.3758 2.10386 11.9488C1.62661 11.5224 2.10106 10.217 2.52802 9.74139Z" fill="#8A4B38"/>
</svg>
